<?xml version="1.0" encoding="UTF-8" standalone="no"?>
<!DOCTYPE svg PUBLIC "-//W3C//DTD SVG 1.1//EN"
 "http://www.w3.org/Graphics/SVG/1.1/DTD/svg11.dtd">
<!-- Generated by graphviz version 2.28.0 (20121203.0332)
 -->
<!-- Title: G Pages: 1 -->
<svg width="650pt" height="475pt"
 viewBox="0.00 0.00 650.00 475.00" xmlns="http://www.w3.org/2000/svg" xmlns:xlink="http://www.w3.org/1999/xlink">
<g id="graph1" class="graph" transform="scale(1 1) rotate(0) translate(4 471)">
<title>G</title>
<polygon fill="white" stroke="white" points="-4,5 -4,-471 647,-471 647,5 -4,5"/>
<g id="graph2" class="cluster"><title>cluster_global</title>
<polyline fill="none" stroke="gray" points="20,-8 622,-8 "/>
<path fill="none" stroke="gray" d="M622,-8C628,-8 634,-14 634,-20"/>
<polyline fill="none" stroke="gray" points="634,-20 634,-447 "/>
<path fill="none" stroke="gray" d="M634,-447C634,-453 628,-459 622,-459"/>
<polyline fill="none" stroke="gray" points="622,-459 20,-459 "/>
<path fill="none" stroke="gray" d="M20,-459C14,-459 8,-453 8,-447"/>
<polyline fill="none" stroke="gray" points="8,-447 8,-20 "/>
<path fill="none" stroke="gray" d="M8,-20C8,-14 14,-8 20,-8"/>
<text text-anchor="middle" x="321" y="-444" font-family="Times,serif" font-size="11.00" fill="gray">global</text>
</g>
<!-- \\Fieldmanager_Checkbox -->
<g id="node2" class="node"><title>\\Fieldmanager_Checkbox</title>
<a xlink:href="class-fieldmanager-checkbox.html" xlink:title="Fieldmanager_Checkbox" target="_parent">
<polygon fill="none" stroke="black" points="382.123,-430 227.877,-430 227.877,-394 382.123,-394 382.123,-430"/>
<text text-anchor="middle" x="305" y="-407.6" font-family="Courier,monospace" font-size="11.00">Fieldmanager_Checkbox</text>
</a>
</g>
<!-- \\Fieldmanager_Field -->
<g id="node4" class="node"><title>\\Fieldmanager_Field</title>
<a xlink:href="class-fieldmanager-field.html" xlink:title="«abstract»&lt;br/&gt;Fieldmanager_Field" target="_parent">
<polygon fill="none" stroke="black" points="151.5,-241 16.5,-241 16.5,-205 151.5,-205 151.5,-241"/>
<text text-anchor="start" x="51" y="-224.5" font-family="Courier,monospace" font-size="11.00">«abstract»</text>
<text text-anchor="start" x="25" y="-213.5" font-family="Courier,monospace" font-size="11.00">Fieldmanager_Field</text>
</a>
</g>
<!-- \\Fieldmanager_Checkbox&#45;&gt;\\Fieldmanager_Field -->
<g id="edge3" class="edge"><title>\\Fieldmanager_Checkbox&#45;&gt;\\Fieldmanager_Field</title>
<path fill="none" stroke="black" d="M240.041,-393.969C234.42,-391.339 228.982,-388.362 224,-385 169.768,-348.407 124.231,-285.243 101.187,-249.558"/>
<polygon fill="none" stroke="black" points="104.138,-247.675 95.8216,-241.11 98.2287,-251.428 104.138,-247.675"/>
</g>
<!-- \\Fieldmanager_Checkboxes -->
<g id="node3" class="node"><title>\\Fieldmanager_Checkboxes</title>
<a xlink:href="class-fieldmanager-checkboxes.html" xlink:title="Fieldmanager_Checkboxes" target="_parent">
<polygon fill="none" stroke="black" points="625.825,-214 458.175,-214 458.175,-178 625.825,-178 625.825,-214"/>
<text text-anchor="middle" x="542" y="-191.6" font-family="Courier,monospace" font-size="11.00">Fieldmanager_Checkboxes</text>
</a>
</g>
<!-- \\Fieldmanager_Options -->
<g id="node8" class="node"><title>\\Fieldmanager_Options</title>
<a xlink:href="class-fieldmanager-options.html" xlink:title="«abstract»&lt;br/&gt;Fieldmanager_Options" target="_parent">
<polygon fill="none" stroke="black" points="379.5,-160 230.5,-160 230.5,-124 379.5,-124 379.5,-160"/>
<text text-anchor="start" x="272" y="-143.5" font-family="Courier,monospace" font-size="11.00">«abstract»</text>
<text text-anchor="start" x="239" y="-132.5" font-family="Courier,monospace" font-size="11.00">Fieldmanager_Options</text>
</a>
</g>
<!-- \\Fieldmanager_Checkboxes&#45;&gt;\\Fieldmanager_Options -->
<g id="edge5" class="edge"><title>\\Fieldmanager_Checkboxes&#45;&gt;\\Fieldmanager_Options</title>
<path fill="none" stroke="black" d="M462.422,-177.944C439.071,-172.578 413.409,-166.681 389.744,-161.243"/>
<polygon fill="none" stroke="black" points="390.266,-157.772 379.736,-158.944 388.698,-164.594 390.266,-157.772"/>
</g>
<!-- \\Fieldmanager_Grid -->
<g id="node5" class="node"><title>\\Fieldmanager_Grid</title>
<a xlink:href="class-fieldmanager-grid.html" xlink:title="Fieldmanager_Grid" target="_parent">
<polygon fill="none" stroke="black" points="369.218,-376 240.782,-376 240.782,-340 369.218,-340 369.218,-376"/>
<text text-anchor="middle" x="305" y="-353.6" font-family="Courier,monospace" font-size="11.00">Fieldmanager_Grid</text>
</a>
</g>
<!-- \\Fieldmanager_Grid&#45;&gt;\\Fieldmanager_Field -->
<g id="edge7" class="edge"><title>\\Fieldmanager_Grid&#45;&gt;\\Fieldmanager_Field</title>
<path fill="none" stroke="black" d="M243.235,-339.916C236.606,-337.234 230.069,-334.261 224,-331 181.367,-308.094 138.287,-272.198 111.628,-248.149"/>
<polygon fill="none" stroke="black" points="113.976,-245.553 104.23,-241.397 109.257,-250.724 113.976,-245.553"/>
</g>
<!-- \\Fieldmanager_Group -->
<g id="node6" class="node"><title>\\Fieldmanager_Group</title>
<a xlink:href="class-fieldmanager-group.html" xlink:title="Fieldmanager_Group" target="_parent">
<polygon fill="none" stroke="black" points="372.319,-322 237.681,-322 237.681,-286 372.319,-286 372.319,-322"/>
<text text-anchor="middle" x="305" y="-299.6" font-family="Courier,monospace" font-size="11.00">Fieldmanager_Group</text>
</a>
</g>
<!-- \\Fieldmanager_Group&#45;&gt;\\Fieldmanager_Field -->
<g id="edge9" class="edge"><title>\\Fieldmanager_Group&#45;&gt;\\Fieldmanager_Field</title>
<path fill="none" stroke="black" d="M249.233,-285.881C240.762,-282.974 232.13,-279.949 224,-277 195.946,-266.822 164.973,-254.862 139.399,-244.787"/>
<polygon fill="none" stroke="black" points="140.465,-241.445 129.878,-241.026 137.893,-247.955 140.465,-241.445"/>
</g>
<!-- \\Fieldmanager_Hidden -->
<g id="node7" class="node"><title>\\Fieldmanager_Hidden</title>
<a xlink:href="class-fieldmanager-hidden.html" xlink:title="Fieldmanager_Hidden" target="_parent">
<polygon fill="none" stroke="black" points="375.921,-268 234.079,-268 234.079,-232 375.921,-232 375.921,-268"/>
<text text-anchor="middle" x="305" y="-245.6" font-family="Courier,monospace" font-size="11.00">Fieldmanager_Hidden</text>
</a>
</g>
<!-- \\Fieldmanager_Hidden&#45;&gt;\\Fieldmanager_Field -->
<g id="edge11" class="edge"><title>\\Fieldmanager_Hidden&#45;&gt;\\Fieldmanager_Field</title>
<path fill="none" stroke="black" d="M234.105,-241.383C210.994,-238.533 185.162,-235.349 161.577,-232.441"/>
<polygon fill="none" stroke="black" points="161.974,-228.964 151.621,-231.214 161.118,-235.911 161.974,-228.964"/>
</g>
<!-- \\Fieldmanager_Options&#45;&gt;\\Fieldmanager_Field -->
<g id="edge13" class="edge"><title>\\Fieldmanager_Options&#45;&gt;\\Fieldmanager_Field</title>
<path fill="none" stroke="black" d="M249.233,-160.119C240.762,-163.026 232.13,-166.051 224,-169 195.946,-179.178 164.973,-191.138 139.399,-201.213"/>
<polygon fill="none" stroke="black" points="137.893,-198.045 129.878,-204.974 140.465,-204.555 137.893,-198.045"/>
</g>
<!-- \\Fieldmanager_Post -->
<g id="node9" class="node"><title>\\Fieldmanager_Post</title>
<a xlink:href="class-fieldmanager-post.html" xlink:title="Fieldmanager_Post" target="_parent">
<polygon fill="none" stroke="black" points="369.218,-214 240.782,-214 240.782,-178 369.218,-178 369.218,-214"/>
<text text-anchor="middle" x="305" y="-191.6" font-family="Courier,monospace" font-size="11.00">Fieldmanager_Post</text>
</a>
</g>
<!-- \\Fieldmanager_Post&#45;&gt;\\Fieldmanager_Field -->
<g id="edge15" class="edge"><title>\\Fieldmanager_Post&#45;&gt;\\Fieldmanager_Field</title>
<path fill="none" stroke="black" d="M240.656,-203.81C216.01,-206.848 187.545,-210.358 161.75,-213.538"/>
<polygon fill="none" stroke="black" points="161.131,-210.087 151.634,-214.785 161.987,-217.035 161.131,-210.087"/>
</g>
<!-- \\Fieldmanager_Radios -->
<g id="node10" class="node"><title>\\Fieldmanager_Radios</title>
<a xlink:href="class-fieldmanager-radios.html" xlink:title="Fieldmanager_Radios" target="_parent">
<polygon fill="none" stroke="black" points="612.921,-160 471.079,-160 471.079,-124 612.921,-124 612.921,-160"/>
<text text-anchor="middle" x="542" y="-137.6" font-family="Courier,monospace" font-size="11.00">Fieldmanager_Radios</text>
</a>
</g>
<!-- \\Fieldmanager_Radios&#45;&gt;\\Fieldmanager_Options -->
<g id="edge17" class="edge"><title>\\Fieldmanager_Radios&#45;&gt;\\Fieldmanager_Options</title>
<path fill="none" stroke="black" d="M471.129,-142C445.575,-142 416.404,-142 389.761,-142"/>
<polygon fill="none" stroke="black" points="389.687,-138.5 379.687,-142 389.687,-145.5 389.687,-138.5"/>
</g>
<!-- \\Fieldmanager_Select -->
<g id="node11" class="node"><title>\\Fieldmanager_Select</title>
<a xlink:href="class-fieldmanager-select.html" xlink:title="Fieldmanager_Select" target="_parent">
<polygon fill="none" stroke="black" points="612.921,-106 471.079,-106 471.079,-70 612.921,-70 612.921,-106"/>
<text text-anchor="middle" x="542" y="-83.6" font-family="Courier,monospace" font-size="11.00">Fieldmanager_Select</text>
</a>
</g>
<!-- \\Fieldmanager_Select&#45;&gt;\\Fieldmanager_Options -->
<g id="edge19" class="edge"><title>\\Fieldmanager_Select&#45;&gt;\\Fieldmanager_Options</title>
<path fill="none" stroke="black" d="M471.129,-104.056C445.575,-109.927 416.404,-116.631 389.761,-122.753"/>
<polygon fill="none" stroke="black" points="388.649,-119.417 379.687,-125.068 390.217,-126.239 388.649,-119.417"/>
</g>
<!-- \\Fieldmanager_TextArea -->
<g id="node12" class="node"><title>\\Fieldmanager_TextArea</title>
<a xlink:href="class-fieldmanager-textarea.html" xlink:title="Fieldmanager_TextArea" target="_parent">
<polygon fill="none" stroke="black" points="382.123,-106 227.877,-106 227.877,-70 382.123,-70 382.123,-106"/>
<text text-anchor="middle" x="305" y="-83.6" font-family="Courier,monospace" font-size="11.00">Fieldmanager_TextArea</text>
</a>
</g>
<!-- \\Fieldmanager_TextArea&#45;&gt;\\Fieldmanager_Field -->
<g id="edge21" class="edge"><title>\\Fieldmanager_TextArea&#45;&gt;\\Fieldmanager_Field</title>
<path fill="none" stroke="black" d="M243.235,-106.084C236.606,-108.766 230.069,-111.739 224,-115 181.367,-137.906 138.287,-173.802 111.628,-197.851"/>
<polygon fill="none" stroke="black" points="109.257,-195.276 104.23,-204.603 113.976,-200.447 109.257,-195.276"/>
</g>
<!-- \\Fieldmanager_TextField -->
<g id="node13" class="node"><title>\\Fieldmanager_TextField</title>
<a xlink:href="class-fieldmanager-textfield.html" xlink:title="Fieldmanager_TextField" target="_parent">
<polygon fill="none" stroke="black" points="385.724,-52 224.276,-52 224.276,-16 385.724,-16 385.724,-52"/>
<text text-anchor="middle" x="305" y="-29.6" font-family="Courier,monospace" font-size="11.00">Fieldmanager_TextField</text>
</a>
</g>
<!-- \\Fieldmanager_TextField&#45;&gt;\\Fieldmanager_Field -->
<g id="edge23" class="edge"><title>\\Fieldmanager_TextField&#45;&gt;\\Fieldmanager_Field</title>
<path fill="none" stroke="black" d="M240.041,-52.031C234.42,-54.661 228.982,-57.6384 224,-61 169.768,-97.5934 124.231,-160.757 101.187,-196.442"/>
<polygon fill="none" stroke="black" points="98.2287,-194.572 95.8216,-204.89 104.138,-198.325 98.2287,-194.572"/>
</g>
</g>
</svg>
