<?xml version="1.0" encoding="UTF-8" standalone="no"?>
<!DOCTYPE svg PUBLIC "-//W3C//DTD SVG 1.1//EN"
 "http://www.w3.org/Graphics/SVG/1.1/DTD/svg11.dtd">
<!-- Generated by graphviz version 2.28.0 (20121203.0332)
 -->
<!-- Title: G Pages: 1 -->
<svg width="650pt" height="513pt"
 viewBox="0.00 0.00 650.00 513.00" xmlns="http://www.w3.org/2000/svg" xmlns:xlink="http://www.w3.org/1999/xlink">
<g id="graph1" class="graph" transform="scale(1 1) rotate(0) translate(4 509)">
<title>G</title>
<polygon fill="white" stroke="white" points="-4,5 -4,-509 647,-509 647,5 -4,5"/>
<g id="graph2" class="cluster"><title>cluster_global</title>
<polyline fill="none" stroke="gray" points="20,-46 622,-46 "/>
<path fill="none" stroke="gray" d="M622,-46C628,-46 634,-52 634,-58"/>
<polyline fill="none" stroke="gray" points="634,-58 634,-485 "/>
<path fill="none" stroke="gray" d="M634,-485C634,-491 628,-497 622,-497"/>
<polyline fill="none" stroke="gray" points="622,-497 20,-497 "/>
<path fill="none" stroke="gray" d="M20,-497C14,-497 8,-491 8,-485"/>
<polyline fill="none" stroke="gray" points="8,-485 8,-58 "/>
<path fill="none" stroke="gray" d="M8,-58C8,-52 14,-46 20,-46"/>
<text text-anchor="middle" x="321" y="-482" font-family="Times,serif" font-size="11.00" fill="gray">global</text>
</g>
<!-- \\FM_Exception -->
<g id="node2" class="node"><title>\\FM_Exception</title>
<a xlink:href="fieldmanager.html" xlink:title="FM_Exception" target="_parent">
<polygon fill="none" stroke="black" points="589.713,-90 494.287,-90 494.287,-54 589.713,-54 589.713,-90"/>
<text text-anchor="middle" x="542" y="-67.6" font-family="Courier,monospace" font-size="11.00">FM_Exception</text>
</a>
</g>
<!-- \\Exception -->
<g id="node16" class="node"><title>\\Exception</title>
<ellipse fill="none" stroke="black" cx="305" cy="-18" rx="52.7417" ry="18"/>
<text text-anchor="middle" x="305" y="-12.4" font-family="Times,serif" font-size="14.00" fill="gray">\Exception</text>
</g>
<!-- \\FM_Exception&#45;&gt;\\Exception -->
<g id="edge3" class="edge"><title>\\FM_Exception&#45;&gt;\\Exception</title>
<path fill="none" stroke="black" d="M494.291,-61.2668C455.421,-52.335 400.073,-39.6168 359.442,-30.2804"/>
<polygon fill="none" stroke="black" points="359.979,-26.8125 349.449,-27.984 358.411,-33.6347 359.979,-26.8125"/>
</g>
<!-- \\Fieldmanager_Checkbox -->
<g id="node3" class="node"><title>\\Fieldmanager_Checkbox</title>
<a xlink:href="php.class-fieldmanager-checkbox.html" xlink:title="Fieldmanager_Checkbox" target="_parent">
<polygon fill="none" stroke="black" points="382.123,-468 227.877,-468 227.877,-432 382.123,-432 382.123,-468"/>
<text text-anchor="middle" x="305" y="-445.6" font-family="Courier,monospace" font-size="11.00">Fieldmanager_Checkbox</text>
</a>
</g>
<!-- \\Fieldmanager_Field -->
<g id="node5" class="node"><title>\\Fieldmanager_Field</title>
<a xlink:href="php.class-fieldmanager-field.html" xlink:title="«abstract»&lt;br/&gt;Fieldmanager_Field" target="_parent">
<polygon fill="none" stroke="black" points="151.5,-279 16.5,-279 16.5,-243 151.5,-243 151.5,-279"/>
<text text-anchor="start" x="51" y="-262.5" font-family="Courier,monospace" font-size="11.00">«abstract»</text>
<text text-anchor="start" x="25" y="-251.5" font-family="Courier,monospace" font-size="11.00">Fieldmanager_Field</text>
</a>
</g>
<!-- \\Fieldmanager_Checkbox&#45;&gt;\\Fieldmanager_Field -->
<g id="edge5" class="edge"><title>\\Fieldmanager_Checkbox&#45;&gt;\\Fieldmanager_Field</title>
<path fill="none" stroke="black" d="M240.041,-431.969C234.42,-429.339 228.982,-426.362 224,-423 169.768,-386.407 124.231,-323.243 101.187,-287.558"/>
<polygon fill="none" stroke="black" points="104.138,-285.675 95.8216,-279.11 98.2287,-289.428 104.138,-285.675"/>
</g>
<!-- \\Fieldmanager_Checkboxes -->
<g id="node4" class="node"><title>\\Fieldmanager_Checkboxes</title>
<a xlink:href="php.class-fieldmanager-checkboxes.html" xlink:title="Fieldmanager_Checkboxes" target="_parent">
<polygon fill="none" stroke="black" points="625.825,-252 458.175,-252 458.175,-216 625.825,-216 625.825,-252"/>
<text text-anchor="middle" x="542" y="-229.6" font-family="Courier,monospace" font-size="11.00">Fieldmanager_Checkboxes</text>
</a>
</g>
<!-- \\Fieldmanager_Options -->
<g id="node9" class="node"><title>\\Fieldmanager_Options</title>
<a xlink:href="php.class-fieldmanager-options.html" xlink:title="«abstract»&lt;br/&gt;Fieldmanager_Options" target="_parent">
<polygon fill="none" stroke="black" points="379.5,-198 230.5,-198 230.5,-162 379.5,-162 379.5,-198"/>
<text text-anchor="start" x="272" y="-181.5" font-family="Courier,monospace" font-size="11.00">«abstract»</text>
<text text-anchor="start" x="239" y="-170.5" font-family="Courier,monospace" font-size="11.00">Fieldmanager_Options</text>
</a>
</g>
<!-- \\Fieldmanager_Checkboxes&#45;&gt;\\Fieldmanager_Options -->
<g id="edge7" class="edge"><title>\\Fieldmanager_Checkboxes&#45;&gt;\\Fieldmanager_Options</title>
<path fill="none" stroke="black" d="M462.422,-215.944C439.071,-210.578 413.409,-204.681 389.744,-199.243"/>
<polygon fill="none" stroke="black" points="390.266,-195.772 379.736,-196.944 388.698,-202.594 390.266,-195.772"/>
</g>
<!-- \\Fieldmanager_Grid -->
<g id="node6" class="node"><title>\\Fieldmanager_Grid</title>
<a xlink:href="php.class-fieldmanager-grid.html" xlink:title="Fieldmanager_Grid" target="_parent">
<polygon fill="none" stroke="black" points="369.218,-414 240.782,-414 240.782,-378 369.218,-378 369.218,-414"/>
<text text-anchor="middle" x="305" y="-391.6" font-family="Courier,monospace" font-size="11.00">Fieldmanager_Grid</text>
</a>
</g>
<!-- \\Fieldmanager_Grid&#45;&gt;\\Fieldmanager_Field -->
<g id="edge9" class="edge"><title>\\Fieldmanager_Grid&#45;&gt;\\Fieldmanager_Field</title>
<path fill="none" stroke="black" d="M243.235,-377.916C236.606,-375.234 230.069,-372.261 224,-369 181.367,-346.094 138.287,-310.198 111.628,-286.149"/>
<polygon fill="none" stroke="black" points="113.976,-283.553 104.23,-279.397 109.257,-288.724 113.976,-283.553"/>
</g>
<!-- \\Fieldmanager_Group -->
<g id="node7" class="node"><title>\\Fieldmanager_Group</title>
<a xlink:href="php.class-fieldmanager-group.html" xlink:title="Fieldmanager_Group" target="_parent">
<polygon fill="none" stroke="black" points="372.319,-360 237.681,-360 237.681,-324 372.319,-324 372.319,-360"/>
<text text-anchor="middle" x="305" y="-337.6" font-family="Courier,monospace" font-size="11.00">Fieldmanager_Group</text>
</a>
</g>
<!-- \\Fieldmanager_Group&#45;&gt;\\Fieldmanager_Field -->
<g id="edge11" class="edge"><title>\\Fieldmanager_Group&#45;&gt;\\Fieldmanager_Field</title>
<path fill="none" stroke="black" d="M249.233,-323.881C240.762,-320.974 232.13,-317.949 224,-315 195.946,-304.822 164.973,-292.862 139.399,-282.787"/>
<polygon fill="none" stroke="black" points="140.465,-279.445 129.878,-279.026 137.893,-285.955 140.465,-279.445"/>
</g>
<!-- \\Fieldmanager_Hidden -->
<g id="node8" class="node"><title>\\Fieldmanager_Hidden</title>
<a xlink:href="php.class-fieldmanager-hidden.html" xlink:title="Fieldmanager_Hidden" target="_parent">
<polygon fill="none" stroke="black" points="375.921,-306 234.079,-306 234.079,-270 375.921,-270 375.921,-306"/>
<text text-anchor="middle" x="305" y="-283.6" font-family="Courier,monospace" font-size="11.00">Fieldmanager_Hidden</text>
</a>
</g>
<!-- \\Fieldmanager_Hidden&#45;&gt;\\Fieldmanager_Field -->
<g id="edge13" class="edge"><title>\\Fieldmanager_Hidden&#45;&gt;\\Fieldmanager_Field</title>
<path fill="none" stroke="black" d="M234.105,-279.383C210.994,-276.533 185.162,-273.349 161.577,-270.441"/>
<polygon fill="none" stroke="black" points="161.974,-266.964 151.621,-269.214 161.118,-273.911 161.974,-266.964"/>
</g>
<!-- \\Fieldmanager_Options&#45;&gt;\\Fieldmanager_Field -->
<g id="edge15" class="edge"><title>\\Fieldmanager_Options&#45;&gt;\\Fieldmanager_Field</title>
<path fill="none" stroke="black" d="M249.233,-198.119C240.762,-201.026 232.13,-204.051 224,-207 195.946,-217.178 164.973,-229.138 139.399,-239.213"/>
<polygon fill="none" stroke="black" points="137.893,-236.045 129.878,-242.974 140.465,-242.555 137.893,-236.045"/>
</g>
<!-- \\Fieldmanager_Post -->
<g id="node10" class="node"><title>\\Fieldmanager_Post</title>
<a xlink:href="php.class-fieldmanager-post.html" xlink:title="Fieldmanager_Post" target="_parent">
<polygon fill="none" stroke="black" points="369.218,-252 240.782,-252 240.782,-216 369.218,-216 369.218,-252"/>
<text text-anchor="middle" x="305" y="-229.6" font-family="Courier,monospace" font-size="11.00">Fieldmanager_Post</text>
</a>
</g>
<!-- \\Fieldmanager_Post&#45;&gt;\\Fieldmanager_Field -->
<g id="edge17" class="edge"><title>\\Fieldmanager_Post&#45;&gt;\\Fieldmanager_Field</title>
<path fill="none" stroke="black" d="M240.656,-241.81C216.01,-244.848 187.545,-248.358 161.75,-251.538"/>
<polygon fill="none" stroke="black" points="161.131,-248.087 151.634,-252.785 161.987,-255.035 161.131,-248.087"/>
</g>
<!-- \\Fieldmanager_Radios -->
<g id="node11" class="node"><title>\\Fieldmanager_Radios</title>
<a xlink:href="php.class-fieldmanager-radios.html" xlink:title="Fieldmanager_Radios" target="_parent">
<polygon fill="none" stroke="black" points="612.921,-198 471.079,-198 471.079,-162 612.921,-162 612.921,-198"/>
<text text-anchor="middle" x="542" y="-175.6" font-family="Courier,monospace" font-size="11.00">Fieldmanager_Radios</text>
</a>
</g>
<!-- \\Fieldmanager_Radios&#45;&gt;\\Fieldmanager_Options -->
<g id="edge19" class="edge"><title>\\Fieldmanager_Radios&#45;&gt;\\Fieldmanager_Options</title>
<path fill="none" stroke="black" d="M471.129,-180C445.575,-180 416.404,-180 389.761,-180"/>
<polygon fill="none" stroke="black" points="389.687,-176.5 379.687,-180 389.687,-183.5 389.687,-176.5"/>
</g>
<!-- \\Fieldmanager_Select -->
<g id="node12" class="node"><title>\\Fieldmanager_Select</title>
<a xlink:href="php.class-fieldmanager-select.html" xlink:title="Fieldmanager_Select" target="_parent">
<polygon fill="none" stroke="black" points="612.921,-144 471.079,-144 471.079,-108 612.921,-108 612.921,-144"/>
<text text-anchor="middle" x="542" y="-121.6" font-family="Courier,monospace" font-size="11.00">Fieldmanager_Select</text>
</a>
</g>
<!-- \\Fieldmanager_Select&#45;&gt;\\Fieldmanager_Options -->
<g id="edge21" class="edge"><title>\\Fieldmanager_Select&#45;&gt;\\Fieldmanager_Options</title>
<path fill="none" stroke="black" d="M471.129,-142.056C445.575,-147.927 416.404,-154.631 389.761,-160.753"/>
<polygon fill="none" stroke="black" points="388.649,-157.417 379.687,-163.068 390.217,-164.239 388.649,-157.417"/>
</g>
<!-- \\Fieldmanager_TextArea -->
<g id="node13" class="node"><title>\\Fieldmanager_TextArea</title>
<a xlink:href="php.class-fieldmanager-textarea.html" xlink:title="Fieldmanager_TextArea" target="_parent">
<polygon fill="none" stroke="black" points="382.123,-144 227.877,-144 227.877,-108 382.123,-108 382.123,-144"/>
<text text-anchor="middle" x="305" y="-121.6" font-family="Courier,monospace" font-size="11.00">Fieldmanager_TextArea</text>
</a>
</g>
<!-- \\Fieldmanager_TextArea&#45;&gt;\\Fieldmanager_Field -->
<g id="edge23" class="edge"><title>\\Fieldmanager_TextArea&#45;&gt;\\Fieldmanager_Field</title>
<path fill="none" stroke="black" d="M243.235,-144.084C236.606,-146.766 230.069,-149.739 224,-153 181.367,-175.906 138.287,-211.802 111.628,-235.851"/>
<polygon fill="none" stroke="black" points="109.257,-233.276 104.23,-242.603 113.976,-238.447 109.257,-233.276"/>
</g>
<!-- \\Fieldmanager_TextField -->
<g id="node14" class="node"><title>\\Fieldmanager_TextField</title>
<a xlink:href="php.class-fieldmanager-textfield.html" xlink:title="Fieldmanager_TextField" target="_parent">
<polygon fill="none" stroke="black" points="385.724,-90 224.276,-90 224.276,-54 385.724,-54 385.724,-90"/>
<text text-anchor="middle" x="305" y="-67.6" font-family="Courier,monospace" font-size="11.00">Fieldmanager_TextField</text>
</a>
</g>
<!-- \\Fieldmanager_TextField&#45;&gt;\\Fieldmanager_Field -->
<g id="edge25" class="edge"><title>\\Fieldmanager_TextField&#45;&gt;\\Fieldmanager_Field</title>
<path fill="none" stroke="black" d="M240.041,-90.031C234.42,-92.661 228.982,-95.6384 224,-99 169.768,-135.593 124.231,-198.757 101.187,-234.442"/>
<polygon fill="none" stroke="black" points="98.2287,-232.572 95.8216,-242.89 104.138,-236.325 98.2287,-232.572"/>
</g>
</g>
</svg>
